<mxfile host="65bd71144e">
    <diagram id="oVu14QyaVvN24O4Kc3gq" name="architecture">
        <mxGraphModel dx="962" dy="341" grid="1" gridSize="10" guides="1" tooltips="1" connect="1" arrows="1" fold="1" page="1" pageScale="1" pageWidth="850" pageHeight="1100" math="0" shadow="0">
            <root>
                <mxCell id="0"/>
                <mxCell id="1" parent="0"/>
                <mxCell id="J0cJ2NQE74hUxMPqBs_v-1" value="Student User" style="shape=umlActor;verticalLabelPosition=bottom;verticalAlign=top;html=1;outlineConnect=0;fillColor=#dae8fc;strokeColor=#6c8ebf;" parent="1" vertex="1">
                    <mxGeometry x="80" y="360" width="40" height="80" as="geometry"/>
                </mxCell>
                <mxCell id="J0cJ2NQE74hUxMPqBs_v-2" value="&lt;b&gt;Client Frontend&lt;/b&gt;&lt;br&gt;(React/Angular/Vue)" style="rounded=1;whiteSpace=wrap;html=1;fillColor=#dae8fc;strokeColor=#6c8ebf;" parent="1" vertex="1">
                    <mxGeometry x="230" y="360" width="160" height="80" as="geometry"/>
                </mxCell>
                <mxCell id="J0cJ2NQE74hUxMPqBs_v-3" value="&lt;b&gt;Server Backend (Spring Boot)&lt;/b&gt;" style="rounded=1;whiteSpace=wrap;html=1;dashed=0;fillColor=#fff2cc;strokeColor=#d6b656;verticalAlign=top;align=center;" parent="1" vertex="1">
                    <mxGeometry x="480" y="245" width="240" height="310" as="geometry"/>
                </mxCell>
                <mxCell id="J0cJ2NQE74hUxMPqBs_v-4" value="User &amp;amp; Course Service" style="rounded=1;whiteSpace=wrap;html=1;fillColor=#ffffff;strokeColor=#000000;" parent="J0cJ2NQE74hUxMPqBs_v-3" vertex="1">
                    <mxGeometry x="40" y="31" width="160" height="46.5" as="geometry"/>
                </mxCell>
                <mxCell id="J0cJ2NQE74hUxMPqBs_v-5" value="Document Processing Service" style="rounded=1;whiteSpace=wrap;html=1;fillColor=#ffffff;strokeColor=#000000;" parent="J0cJ2NQE74hUxMPqBs_v-3" vertex="1">
                    <mxGeometry x="40" y="93" width="160" height="46.5" as="geometry"/>
                </mxCell>
                <mxCell id="J0cJ2NQE74hUxMPqBs_v-6" value="Query Orchestration Service" style="rounded=1;whiteSpace=wrap;html=1;fillColor=#ffffff;strokeColor=#000000;" parent="J0cJ2NQE74hUxMPqBs_v-3" vertex="1">
                    <mxGeometry x="40" y="155" width="160" height="46.5" as="geometry"/>
                </mxCell>
                <mxCell id="J0cJ2NQE74hUxMPqBs_v-7" value="API Gateway / Load Balancer&lt;br&gt;(Implicit)" style="text;html=1;align=center;verticalAlign=middle;resizable=0;points=[];autosize=1;strokeColor=none;fillColor=none;fontStyle=2;fontSize=10;" parent="J0cJ2NQE74hUxMPqBs_v-3" vertex="1">
                    <mxGeometry x="40" y="232.5" width="160" height="40" as="geometry"/>
                </mxCell>
                <mxCell id="J0cJ2NQE74hUxMPqBs_v-8" value="&lt;b&gt;GenAI Service&lt;/b&gt;&lt;br&gt;(Python/LangChain)" style="rounded=1;whiteSpace=wrap;html=1;fillColor=#d5e8d4;strokeColor=#82b366;" parent="1" vertex="1">
                    <mxGeometry x="860" y="360" width="160" height="80" as="geometry"/>
                </mxCell>
                <mxCell id="J0cJ2NQE74hUxMPqBs_v-9" value="&lt;b&gt;Relational DB&lt;/b&gt;&lt;br&gt;(PostgreSQL)" style="shape=cylinder3;whiteSpace=wrap;html=1;boundedLbl=1;backgroundOutline=1;size=15;fillColor=#f8cecc;strokeColor=#b85450;" parent="1" vertex="1">
                    <mxGeometry x="550" y="640" width="100" height="120" as="geometry"/>
                </mxCell>
                <mxCell id="J0cJ2NQE74hUxMPqBs_v-10" value="&lt;b&gt;Vector DB&lt;/b&gt;&lt;br&gt;(Weaviate)" style="shape=cylinder3;whiteSpace=wrap;html=1;boundedLbl=1;backgroundOutline=1;size=15;fillColor=#f8cecc;strokeColor=#b85450;" parent="1" vertex="1">
                    <mxGeometry x="890" y="520" width="100" height="120" as="geometry"/>
                </mxCell>
                <mxCell id="J0cJ2NQE74hUxMPqBs_v-11" value="&lt;b&gt;LLM API&lt;/b&gt;&lt;br&gt;(Cloud/Local)" style="shape=cloud;whiteSpace=wrap;html=1;fillColor=#e1d5e7;strokeColor=#9673a6;" parent="1" vertex="1">
                    <mxGeometry x="1120" y="360" width="120" height="80" as="geometry"/>
                </mxCell>
                <mxCell id="J0cJ2NQE74hUxMPqBs_v-12" value="HTTP&lt;div&gt;Request&lt;/div&gt;" style="endArrow=classic;html=1;rounded=0;" parent="1" source="J0cJ2NQE74hUxMPqBs_v-1" target="J0cJ2NQE74hUxMPqBs_v-2" edge="1">
                    <mxGeometry x="0.0227" width="50" height="50" relative="1" as="geometry">
                        <mxPoint x="170" y="400" as="sourcePoint"/>
                        <mxPoint x="230" y="400" as="targetPoint"/>
                        <mxPoint as="offset"/>
                    </mxGeometry>
                </mxCell>
                <mxCell id="J0cJ2NQE74hUxMPqBs_v-13" value="REST API&lt;div&gt;Call (HTTP)&lt;/div&gt;" style="endArrow=classic;html=1;rounded=0;" parent="1" source="J0cJ2NQE74hUxMPqBs_v-2" target="J0cJ2NQE74hUxMPqBs_v-3" edge="1">
                    <mxGeometry width="50" height="50" relative="1" as="geometry">
                        <mxPoint x="410" y="400" as="sourcePoint"/>
                        <mxPoint x="470" y="400" as="targetPoint"/>
                        <mxPoint as="offset"/>
                    </mxGeometry>
                </mxCell>
                <mxCell id="J0cJ2NQE74hUxMPqBs_v-14" value="DB Query/Store" style="endArrow=classic;html=1;rounded=0;" parent="1" source="J0cJ2NQE74hUxMPqBs_v-3" target="J0cJ2NQE74hUxMPqBs_v-9" edge="1">
                    <mxGeometry width="50" height="50" relative="1" as="geometry">
                        <mxPoint x="600" y="610" as="sourcePoint"/>
                        <mxPoint x="530" y="630" as="targetPoint"/>
                    </mxGeometry>
                </mxCell>
                <mxCell id="J0cJ2NQE74hUxMPqBs_v-15" value="RAG Request /&lt;div&gt;Doc Processing Task&lt;/div&gt;" style="endArrow=classic;html=1;rounded=0;" parent="1" source="J0cJ2NQE74hUxMPqBs_v-3" target="J0cJ2NQE74hUxMPqBs_v-8" edge="1">
                    <mxGeometry width="50" height="50" relative="1" as="geometry">
                        <mxPoint x="730" y="400" as="sourcePoint"/>
                        <mxPoint x="790" y="400" as="targetPoint"/>
                    </mxGeometry>
                </mxCell>
                <mxCell id="J0cJ2NQE74hUxMPqBs_v-16" value="Embed/Query VectorDB" style="endArrow=classic;html=1;rounded=0;" parent="1" source="J0cJ2NQE74hUxMPqBs_v-8" target="J0cJ2NQE74hUxMPqBs_v-10" edge="1">
                    <mxGeometry width="50" height="50" relative="1" as="geometry">
                        <mxPoint x="920" y="450" as="sourcePoint"/>
                        <mxPoint x="890" y="510" as="targetPoint"/>
                    </mxGeometry>
                </mxCell>
                <mxCell id="J0cJ2NQE74hUxMPqBs_v-17" value="LLM API Call" style="endArrow=classic;html=1;rounded=0;" parent="1" source="J0cJ2NQE74hUxMPqBs_v-8" target="J0cJ2NQE74hUxMPqBs_v-11" edge="1">
                    <mxGeometry width="50" height="50" relative="1" as="geometry">
                        <mxPoint x="1010" y="390" as="sourcePoint"/>
                        <mxPoint x="1070" y="390" as="targetPoint"/>
                    </mxGeometry>
                </mxCell>
            </root>
        </mxGraphModel>
    </diagram>
    <diagram id="G0viHAdCZWQ-W64lC9Ik" name="enriched-architecture">
        <mxGraphModel dx="1107" dy="816" grid="1" gridSize="10" guides="1" tooltips="1" connect="1" arrows="1" fold="1" page="1" pageScale="1" pageWidth="850" pageHeight="1100" math="0" shadow="0">
            <root>
                <mxCell id="0"/>
                <mxCell id="1" parent="0"/>
                <mxCell id="2FLN5IznpKx3Zrl0FCvB-1" value="Student User" style="shape=umlActor;verticalLabelPosition=bottom;verticalAlign=top;html=1;outlineConnect=0;fillColor=#dae8fc;strokeColor=#6c8ebf;" parent="1" vertex="1">
                    <mxGeometry y="470" width="80" height="120" as="geometry"/>
                </mxCell>
                <mxCell id="2FLN5IznpKx3Zrl0FCvB-2" value="&lt;b&gt;Client Frontend&lt;/b&gt;&lt;br&gt;(React/Angular/Vue)&lt;br&gt;[Container]" style="rounded=1;whiteSpace=wrap;html=1;fillColor=#dae8fc;strokeColor=#6c8ebf;" parent="1" vertex="1">
                    <mxGeometry x="200" y="490" width="160" height="80" as="geometry"/>
                </mxCell>
                <mxCell id="2FLN5IznpKx3Zrl0FCvB-3" value="&lt;b&gt;Kubernetes Cluster (Cloud / Local)&lt;/b&gt;" style="rounded=1;whiteSpace=wrap;html=1;dashed=1;strokeWidth=2;fillColor=none;strokeColor=#f0a30a;verticalAlign=top;align=center;fontSize=14;" parent="1" vertex="1">
                    <mxGeometry x="400" y="160" width="980" height="860" as="geometry"/>
                </mxCell>
                <mxCell id="2FLN5IznpKx3Zrl0FCvB-4" value="&lt;b&gt;Server Backend (Spring Boot)&lt;/b&gt;" style="rounded=1;whiteSpace=wrap;html=1;dashed=0;fillColor=#fff2cc;strokeColor=#d6b656;verticalAlign=top;align=center;fontSize=12;" parent="2FLN5IznpKx3Zrl0FCvB-3" vertex="1">
                    <mxGeometry x="40" y="220" width="240" height="320" as="geometry"/>
                </mxCell>
                <mxCell id="2FLN5IznpKx3Zrl0FCvB-5" value="User &amp;amp; Course Service&lt;br&gt;[Pod/Deployment]" style="rounded=1;whiteSpace=wrap;html=1;fillColor=#ffffff;strokeColor=#000000;" parent="2FLN5IznpKx3Zrl0FCvB-4" vertex="1">
                    <mxGeometry x="40" y="50" width="160" height="60" as="geometry"/>
                </mxCell>
                <mxCell id="2FLN5IznpKx3Zrl0FCvB-6" value="Document Processing Service&lt;br&gt;[Pod/Deployment]" style="rounded=1;whiteSpace=wrap;html=1;fillColor=#ffffff;strokeColor=#000000;" parent="2FLN5IznpKx3Zrl0FCvB-4" vertex="1">
                    <mxGeometry x="40" y="130" width="160" height="60" as="geometry"/>
                </mxCell>
                <mxCell id="2FLN5IznpKx3Zrl0FCvB-7" value="Query Orchestration Service&lt;br&gt;[Pod/Deployment]" style="rounded=1;whiteSpace=wrap;html=1;fillColor=#ffffff;strokeColor=#000000;" parent="2FLN5IznpKx3Zrl0FCvB-4" vertex="1">
                    <mxGeometry x="40" y="210" width="160" height="60" as="geometry"/>
                </mxCell>
                <mxCell id="2FLN5IznpKx3Zrl0FCvB-8" value="&lt;b&gt;Ingress Controller / API Gateway&lt;/b&gt;" style="rounded=1;whiteSpace=wrap;html=1;fillColor=#f5f5f5;strokeColor=#666666;" parent="2FLN5IznpKx3Zrl0FCvB-3" vertex="1">
                    <mxGeometry x="40" y="80" width="180" height="60" as="geometry"/>
                </mxCell>
                <mxCell id="2FLN5IznpKx3Zrl0FCvB-9" value="&lt;b&gt;GenAI Service&lt;/b&gt;&lt;br&gt;(Python/LangChain)&lt;br&gt;[Pod/Deployment]" style="rounded=1;whiteSpace=wrap;html=1;fillColor=#d5e8d4;strokeColor=#82b366;" parent="2FLN5IznpKx3Zrl0FCvB-3" vertex="1">
                    <mxGeometry x="470" y="340" width="160" height="80" as="geometry"/>
                </mxCell>
                <mxCell id="2FLN5IznpKx3Zrl0FCvB-10" value="&lt;b&gt;Relational DB&lt;/b&gt;&lt;br&gt;(PostgreSQL)&lt;br&gt;[StatefulSet/Pod]" style="shape=cylinder3;whiteSpace=wrap;html=1;boundedLbl=1;backgroundOutline=1;size=15;fillColor=#f8cecc;strokeColor=#b85450;" parent="2FLN5IznpKx3Zrl0FCvB-3" vertex="1">
                    <mxGeometry x="100" y="600" width="120" height="140" as="geometry"/>
                </mxCell>
                <mxCell id="2FLN5IznpKx3Zrl0FCvB-11" value="&lt;b&gt;Vector DB&lt;/b&gt;&lt;br&gt;(Weaviate)&lt;br&gt;[StatefulSet/Pod]" style="shape=cylinder3;whiteSpace=wrap;html=1;boundedLbl=1;backgroundOutline=1;size=15;fillColor=#f8cecc;strokeColor=#b85450;" parent="2FLN5IznpKx3Zrl0FCvB-3" vertex="1">
                    <mxGeometry x="360" y="600" width="120" height="140" as="geometry"/>
                </mxCell>
                <mxCell id="2FLN5IznpKx3Zrl0FCvB-12" value="&lt;b&gt;Monitoring Stack&lt;/b&gt;" style="rounded=1;whiteSpace=wrap;html=1;dashed=1;fillColor=none;strokeColor=#0066CC;verticalAlign=top;align=center;fontSize=12;" parent="2FLN5IznpKx3Zrl0FCvB-3" vertex="1">
                    <mxGeometry x="600" y="580" width="340" height="240" as="geometry"/>
                </mxCell>
                <mxCell id="2FLN5IznpKx3Zrl0FCvB-13" value="Prometheus&lt;br&gt;[Pod/Deployment]" style="ellipse;shape=doubleEllipse;whiteSpace=wrap;html=1;aspect=fixed;fillColor=#dae8fc;strokeColor=#6c8ebf;" parent="2FLN5IznpKx3Zrl0FCvB-12" vertex="1">
                    <mxGeometry x="40" y="60" width="100" height="100" as="geometry"/>
                </mxCell>
                <mxCell id="2FLN5IznpKx3Zrl0FCvB-14" value="Grafana&lt;br&gt;[Pod/Deployment]" style="rounded=1;whiteSpace=wrap;html=1;fillColor=#dae8fc;strokeColor=#6c8ebf;" parent="2FLN5IznpKx3Zrl0FCvB-12" vertex="1">
                    <mxGeometry x="200" y="40" width="100" height="60" as="geometry"/>
                </mxCell>
                <mxCell id="2FLN5IznpKx3Zrl0FCvB-15" value="Alertmanager&lt;br&gt;[Pod/Deployment]" style="shape=hexagon;perimeter=hexagonPerimeter2;whiteSpace=wrap;html=1;fixedSize=1;fillColor=#dae8fc;strokeColor=#6c8ebf;" parent="2FLN5IznpKx3Zrl0FCvB-12" vertex="1">
                    <mxGeometry x="200" y="140" width="100" height="60" as="geometry"/>
                </mxCell>
                <mxCell id="2FLN5IznpKx3Zrl0FCvB-16" value="&lt;b&gt;GitHub Repository&lt;/b&gt;&lt;br&gt;(Source Code, Dockerfiles, Helm/YAMLs, Docs)" style="shape=cylinder3;whiteSpace=wrap;html=1;boundedLbl=1;backgroundOutline=1;size=15;fillColor=#f5f5f5;strokeColor=#666666;" parent="1" vertex="1">
                    <mxGeometry x="1520" y="280" width="140" height="160" as="geometry"/>
                </mxCell>
                <mxCell id="2FLN5IznpKx3Zrl0FCvB-17" value="&lt;b&gt;GitHub Actions &lt;/b&gt;CI/CD Pipeline" style="shape=process;whiteSpace=wrap;html=1;backgroundOutline=1;fillColor=#f5f5f5;strokeColor=#666666;" parent="1" vertex="1">
                    <mxGeometry x="1520" y="480" width="140" height="80" as="geometry"/>
                </mxCell>
                <mxCell id="2FLN5IznpKx3Zrl0FCvB-18" value="&lt;b&gt;Docker Image Registry&lt;/b&gt;&lt;br&gt;(e.g., Docker Hub, GHCR)" style="shape=cylinder3;whiteSpace=wrap;html=1;boundedLbl=1;backgroundOutline=1;size=15;fillColor=#f5f5f5;strokeColor=#666666;" parent="1" vertex="1">
                    <mxGeometry x="1520" y="600" width="140" height="160" as="geometry"/>
                </mxCell>
                <mxCell id="2FLN5IznpKx3Zrl0FCvB-19" value="&lt;b&gt;LLM API&lt;br&gt;(Cloud/Local)&lt;/b&gt;" style="shape=cloud;whiteSpace=wrap;html=1;fillColor=#e1d5e7;strokeColor=#9673a6;" parent="1" vertex="1">
                    <mxGeometry x="600" y="40" width="120" height="80" as="geometry"/>
                </mxCell>
                <mxCell id="2FLN5IznpKx3Zrl0FCvB-20" value="&lt;b&gt;Swagger UI / OpenAPI Doc&lt;/b&gt;" style="shape=document;whiteSpace=wrap;html=1;boundedLbl=1;fillColor=#ffe6cc;strokeColor=#d79b00;" parent="1" vertex="1">
                    <mxGeometry x="480" y="40" width="100" height="80" as="geometry"/>
                </mxCell>
                <mxCell id="2FLN5IznpKx3Zrl0FCvB-21" value="HTTP Request" style="endArrow=classic;html=1;rounded=0;" parent="1" source="2FLN5IznpKx3Zrl0FCvB-1" target="2FLN5IznpKx3Zrl0FCvB-2" edge="1">
                    <mxGeometry width="50" height="50" relative="1" as="geometry">
                        <mxPoint x="150" y="530" as="sourcePoint"/>
                        <mxPoint x="190" y="530" as="targetPoint"/>
                    </mxGeometry>
                </mxCell>
                <mxCell id="2FLN5IznpKx3Zrl0FCvB-22" value="HTTP Request" style="endArrow=classic;html=1;rounded=0;edgeStyle=orthogonalEdgeStyle;" parent="1" source="2FLN5IznpKx3Zrl0FCvB-2" target="2FLN5IznpKx3Zrl0FCvB-8" edge="1">
                    <mxGeometry width="50" height="50" relative="1" as="geometry">
                        <mxPoint x="370" y="530" as="sourcePoint"/>
                        <mxPoint x="430" y="110" as="targetPoint"/>
                        <Array as="points">
                            <mxPoint x="420" y="530"/>
                            <mxPoint x="420" y="270"/>
                        </Array>
                    </mxGeometry>
                </mxCell>
                <mxCell id="2FLN5IznpKx3Zrl0FCvB-23" value="Routes Request" style="endArrow=classic;html=1;rounded=0;edgeStyle=orthogonalEdgeStyle;" parent="1" source="2FLN5IznpKx3Zrl0FCvB-8" target="2FLN5IznpKx3Zrl0FCvB-4" edge="1">
                    <mxGeometry width="50" height="50" relative="1" as="geometry">
                        <mxPoint x="130" y="150" as="sourcePoint"/>
                        <mxPoint x="130" y="210" as="targetPoint"/>
                        <mxPoint as="offset"/>
                    </mxGeometry>
                </mxCell>
                <mxCell id="2FLN5IznpKx3Zrl0FCvB-24" value="DB Query/Store" style="endArrow=classic;html=1;rounded=0;exitX=0.5;exitY=1;exitDx=0;exitDy=0;entryX=0.5;entryY=0;entryDx=0;entryDy=0;" parent="1" source="2FLN5IznpKx3Zrl0FCvB-4" target="2FLN5IznpKx3Zrl0FCvB-10" edge="1">
                    <mxGeometry width="50" height="50" relative="1" as="geometry">
                        <mxPoint x="600" y="580" as="sourcePoint"/>
                        <mxPoint x="530" y="630" as="targetPoint"/>
                    </mxGeometry>
                </mxCell>
                <mxCell id="2FLN5IznpKx3Zrl0FCvB-25" value="RAG Request / Doc Task" style="endArrow=classic;html=1;rounded=0;exitX=1;exitY=0.5;exitDx=0;exitDy=0;entryX=0;entryY=0.5;entryDx=0;entryDy=0;" parent="1" source="2FLN5IznpKx3Zrl0FCvB-4" target="2FLN5IznpKx3Zrl0FCvB-9" edge="1">
                    <mxGeometry width="50" height="50" relative="1" as="geometry">
                        <mxPoint x="730" y="370" as="sourcePoint"/>
                        <mxPoint x="790" y="370" as="targetPoint"/>
                    </mxGeometry>
                </mxCell>
                <mxCell id="2FLN5IznpKx3Zrl0FCvB-26" value="Embed/Query VectorDB" style="endArrow=classic;html=1;rounded=0;exitX=0.5;exitY=1;exitDx=0;exitDy=0;entryX=0.5;entryY=0;entryDx=0;entryDy=0;edgeStyle=orthogonalEdgeStyle;" parent="1" source="2FLN5IznpKx3Zrl0FCvB-9" target="2FLN5IznpKx3Zrl0FCvB-11" edge="1">
                    <mxGeometry width="50" height="50" relative="1" as="geometry">
                        <mxPoint x="440" y="420" as="sourcePoint"/>
                        <mxPoint x="420" y="590" as="targetPoint"/>
                    </mxGeometry>
                </mxCell>
                <mxCell id="2FLN5IznpKx3Zrl0FCvB-27" value="LLM API Call" style="endArrow=classic;html=1;rounded=0;exitX=0.5;exitY=0;exitDx=0;exitDy=0;edgeStyle=orthogonalEdgeStyle;" parent="1" source="2FLN5IznpKx3Zrl0FCvB-9" target="2FLN5IznpKx3Zrl0FCvB-19" edge="1">
                    <mxGeometry width="50" height="50" relative="1" as="geometry">
                        <mxPoint x="440" y="320" as="sourcePoint"/>
                        <mxPoint x="650" y="130" as="targetPoint"/>
                    </mxGeometry>
                </mxCell>
                <mxCell id="2FLN5IznpKx3Zrl0FCvB-28" value="Scrapes Metrics" style="endArrow=classic;html=1;rounded=0;dashed=1;edgeStyle=orthogonalEdgeStyle;" parent="1" source="2FLN5IznpKx3Zrl0FCvB-13" target="2FLN5IznpKx3Zrl0FCvB-4" edge="1">
                    <mxGeometry x="0.3333" width="50" height="50" relative="1" as="geometry">
                        <mxPoint x="780" y="730" as="sourcePoint"/>
                        <mxPoint x="710" y="530" as="targetPoint"/>
                        <Array as="points">
                            <mxPoint x="1090" y="740"/>
                            <mxPoint x="560" y="740"/>
                        </Array>
                        <mxPoint as="offset"/>
                    </mxGeometry>
                </mxCell>
                <mxCell id="2FLN5IznpKx3Zrl0FCvB-29" value="Scrapes Metrics" style="endArrow=classic;html=1;rounded=0;dashed=1;edgeStyle=orthogonalEdgeStyle;" parent="1" source="2FLN5IznpKx3Zrl0FCvB-13" target="2FLN5IznpKx3Zrl0FCvB-9" edge="1">
                    <mxGeometry width="50" height="50" relative="1" as="geometry">
                        <mxPoint x="780" y="730" as="sourcePoint"/>
                        <mxPoint x="530" y="370" as="targetPoint"/>
                    </mxGeometry>
                </mxCell>
                <mxCell id="2FLN5IznpKx3Zrl0FCvB-30" value="Queries Metrics" style="endArrow=classic;html=1;rounded=0;" parent="1" source="2FLN5IznpKx3Zrl0FCvB-14" target="2FLN5IznpKx3Zrl0FCvB-13" edge="1">
                    <mxGeometry width="50" height="50" relative="1" as="geometry">
                        <mxPoint x="990" y="670" as="sourcePoint"/>
                        <mxPoint x="890" y="730" as="targetPoint"/>
                    </mxGeometry>
                </mxCell>
                <mxCell id="2FLN5IznpKx3Zrl0FCvB-31" value="Sends Alerts" style="endArrow=classic;html=1;rounded=0;" parent="1" source="2FLN5IznpKx3Zrl0FCvB-13" target="2FLN5IznpKx3Zrl0FCvB-15" edge="1">
                    <mxGeometry width="50" height="50" relative="1" as="geometry">
                        <mxPoint x="890" y="790" as="sourcePoint"/>
                        <mxPoint x="990" y="790" as="targetPoint"/>
                    </mxGeometry>
                </mxCell>
                <mxCell id="2FLN5IznpKx3Zrl0FCvB-32" value="Trigger (Push/PR)" style="endArrow=classic;html=1;rounded=0;" parent="1" source="2FLN5IznpKx3Zrl0FCvB-16" target="2FLN5IznpKx3Zrl0FCvB-17" edge="1">
                    <mxGeometry width="50" height="50" relative="1" as="geometry">
                        <mxPoint x="1590" y="450" as="sourcePoint"/>
                        <mxPoint x="1590" y="470" as="targetPoint"/>
                    </mxGeometry>
                </mxCell>
                <mxCell id="2FLN5IznpKx3Zrl0FCvB-33" value="Push Docker Image" style="endArrow=classic;html=1;rounded=0;" parent="1" source="2FLN5IznpKx3Zrl0FCvB-17" target="2FLN5IznpKx3Zrl0FCvB-18" edge="1">
                    <mxGeometry width="50" height="50" relative="1" as="geometry">
                        <mxPoint x="1590" y="570" as="sourcePoint"/>
                        <mxPoint x="1590" y="590" as="targetPoint"/>
                    </mxGeometry>
                </mxCell>
                <mxCell id="2FLN5IznpKx3Zrl0FCvB-34" value="Deploy (Helm/kubectl)" style="endArrow=classic;html=1;rounded=0;exitX=0;exitY=0.5;exitDx=0;exitDy=0;edgeStyle=orthogonalEdgeStyle;" parent="1" source="2FLN5IznpKx3Zrl0FCvB-17" target="2FLN5IznpKx3Zrl0FCvB-3" edge="1">
                    <mxGeometry width="50" height="50" relative="1" as="geometry">
                        <mxPoint x="1450" y="480" as="sourcePoint"/>
                        <mxPoint x="1390" y="480" as="targetPoint"/>
                    </mxGeometry>
                </mxCell>
                <mxCell id="2FLN5IznpKx3Zrl0FCvB-35" value="Pull Docker Image" style="endArrow=classic;html=1;rounded=0;entryX=0;entryY=0.5;entryDx=0;entryDy=0;edgeStyle=orthogonalEdgeStyle;" parent="1" target="2FLN5IznpKx3Zrl0FCvB-18" edge="1">
                    <mxGeometry width="50" height="50" relative="1" as="geometry">
                        <mxPoint x="1380" y="640" as="sourcePoint"/>
                        <mxPoint x="1450" y="640" as="targetPoint"/>
                    </mxGeometry>
                </mxCell>
                <mxCell id="2FLN5IznpKx3Zrl0FCvB-36" value="Exposes API Doc" style="endArrow=classic;html=1;rounded=0;exitX=0.5;exitY=0;exitDx=0;exitDy=0;entryX=0.5;entryY=1;entryDx=0;entryDy=0;edgeStyle=orthogonalEdgeStyle;" parent="1" source="2FLN5IznpKx3Zrl0FCvB-4" target="2FLN5IznpKx3Zrl0FCvB-20" edge="1">
                    <mxGeometry width="50" height="50" relative="1" as="geometry">
                        <mxPoint x="600" y="190" as="sourcePoint"/>
                        <mxPoint x="530" y="130" as="targetPoint"/>
                        <Array as="points">
                            <mxPoint x="560" y="350"/>
                            <mxPoint x="630" y="350"/>
                            <mxPoint x="630" y="210"/>
                            <mxPoint x="530" y="210"/>
                        </Array>
                    </mxGeometry>
                </mxCell>
                <mxCell id="2FLN5IznpKx3Zrl0FCvB-37" value="Views Dashboards" style="endArrow=classic;html=1;rounded=0;dashed=1;edgeStyle=orthogonalEdgeStyle;" parent="1" source="2FLN5IznpKx3Zrl0FCvB-1" target="2FLN5IznpKx3Zrl0FCvB-14" edge="1">
                    <mxGeometry width="50" height="50" relative="1" as="geometry">
                        <mxPoint x="150" y="530" as="sourcePoint"/>
                        <mxPoint x="1090" y="610" as="targetPoint"/>
                        <Array as="points">
                            <mxPoint x="40" y="710"/>
                            <mxPoint x="1250" y="710"/>
                        </Array>
                    </mxGeometry>
                </mxCell>
            </root>
        </mxGraphModel>
    </diagram>
    <diagram id="ecpGvIfZCI6V8JqLONzB" name="Page-1">
        <mxGraphModel dx="418" dy="449" grid="1" gridSize="10" guides="1" tooltips="1" connect="1" arrows="1" fold="1" page="1" pageScale="1" pageWidth="850" pageHeight="1100" math="0" shadow="0">
            <root>
                <mxCell id="0"/>
                <mxCell id="1" parent="0"/>
                <mxCell id="2" value="User Starts Application" style="rounded=1;whiteSpace=wrap;html=1;fillColor=#dae8fc;strokeColor=#6c8ebf;" parent="1" vertex="1">
                    <mxGeometry x="320" y="40" width="160" height="60" as="geometry"/>
                </mxCell>
                <mxCell id="3" value="User Logs In / Registers" style="rounded=1;whiteSpace=wrap;html=1;fillColor=#dae8fc;strokeColor=#6c8ebf;" parent="1" vertex="1">
                    <mxGeometry x="320" y="140" width="160" height="60" as="geometry"/>
                </mxCell>
                <mxCell id="4" value="User Selects/Creates Course Space" style="rounded=1;whiteSpace=wrap;html=1;fillColor=#dae8fc;strokeColor=#6c8ebf;" parent="1" vertex="1">
                    <mxGeometry x="320" y="240" width="160" height="60" as="geometry"/>
                </mxCell>
                <mxCell id="5" value="User Uploads Document(s)" style="rounded=1;whiteSpace=wrap;html=1;fillColor=#dae8fc;strokeColor=#6c8ebf;" parent="1" vertex="1">
                    <mxGeometry x="320" y="340" width="160" height="60" as="geometry"/>
                </mxCell>
                <mxCell id="6" value="System: Store Document Metadata (DB)" style="ellipse;whiteSpace=wrap;html=1;fillColor=#fff2cc;strokeColor=#d6b656;" parent="1" vertex="1">
                    <mxGeometry x="590" y="260" width="140" height="40" as="geometry"/>
                </mxCell>
                <mxCell id="7" value="System: Process &amp; Index Document (GenAI Service: Chunk, Embed, Store in VectorDB)" style="ellipse;whiteSpace=wrap;html=1;fillColor=#fff2cc;strokeColor=#d6b656;" parent="1" vertex="1">
                    <mxGeometry x="590" y="380" width="140" height="80" as="geometry"/>
                </mxCell>
                <mxCell id="8" value="User Asks Question in Course Space" style="rounded=1;whiteSpace=wrap;html=1;fillColor=#dae8fc;strokeColor=#6c8ebf;" parent="1" vertex="1">
                    <mxGeometry x="320" y="500" width="160" height="60" as="geometry"/>
                </mxCell>
                <mxCell id="9" value="System: Query GenAI Service with Question &amp; Course Context" style="ellipse;whiteSpace=wrap;html=1;fillColor=#fff2cc;strokeColor=#d6b656;" parent="1" vertex="1">
                    <mxGeometry x="590" y="490" width="140" height="80" as="geometry"/>
                </mxCell>
                <mxCell id="10" value="GenAI Service: Retrieve Relevant Chunks (RAG from VectorDB)" style="ellipse;whiteSpace=wrap;html=1;fillColor=#fff2cc;strokeColor=#d6b656;" parent="1" vertex="1">
                    <mxGeometry x="320" y="600" width="160" height="80" as="geometry"/>
                </mxCell>
                <mxCell id="11" value="GenAI Service: Generate Answer using LLM &amp; Chunks" style="ellipse;whiteSpace=wrap;html=1;fillColor=#fff2cc;strokeColor=#d6b656;" parent="1" vertex="1">
                    <mxGeometry x="320" y="700" width="160" height="80" as="geometry"/>
                </mxCell>
                <mxCell id="12" value="System: Display Answer &amp; Sources to User" style="rounded=1;whiteSpace=wrap;html=1;fillColor=#dae8fc;strokeColor=#6c8ebf;" parent="1" vertex="1">
                    <mxGeometry x="320" y="800" width="160" height="60" as="geometry"/>
                </mxCell>
                <mxCell id="13" value="" style="endArrow=classic;html=1;rounded=0;entryX=0.5;entryY=0;entryDx=0;entryDy=0;" parent="1" source="2" target="3" edge="1">
                    <mxGeometry width="50" height="50" relative="1" as="geometry">
                        <mxPoint x="400" y="120" as="sourcePoint"/>
                        <mxPoint x="400" y="120" as="targetPoint"/>
                    </mxGeometry>
                </mxCell>
                <mxCell id="14" value="" style="endArrow=classic;html=1;rounded=0;entryX=0.5;entryY=0;entryDx=0;entryDy=0;" parent="1" source="3" target="4" edge="1">
                    <mxGeometry width="50" height="50" relative="1" as="geometry">
                        <mxPoint x="400" y="220" as="sourcePoint"/>
                        <mxPoint x="400" y="220" as="targetPoint"/>
                    </mxGeometry>
                </mxCell>
                <mxCell id="15" value="" style="endArrow=classic;html=1;rounded=0;entryX=0.5;entryY=0;entryDx=0;entryDy=0;" parent="1" source="4" target="5" edge="1">
                    <mxGeometry width="50" height="50" relative="1" as="geometry">
                        <mxPoint x="400" y="320" as="sourcePoint"/>
                        <mxPoint x="400" y="320" as="targetPoint"/>
                    </mxGeometry>
                </mxCell>
                <mxCell id="16" value="" style="endArrow=classic;html=1;rounded=0;entryX=0.5;entryY=0;entryDx=0;entryDy=0;exitX=0.5;exitY=1;exitDx=0;exitDy=0;" parent="1" source="5" target="8" edge="1">
                    <mxGeometry width="50" height="50" relative="1" as="geometry">
                        <mxPoint x="400" y="420" as="sourcePoint"/>
                        <mxPoint x="400" y="470" as="targetPoint"/>
                    </mxGeometry>
                </mxCell>
                <mxCell id="17" value="Doc Processing Flow" style="endArrow=classic;html=1;rounded=0;entryX=0;entryY=0.5;entryDx=0;entryDy=0;exitX=1;exitY=0.25;exitDx=0;exitDy=0;" parent="1" source="5" target="6" edge="1">
                    <mxGeometry width="50" height="50" relative="1" as="geometry">
                        <mxPoint x="490" y="365" as="sourcePoint"/>
                        <mxPoint x="510" y="360" as="targetPoint"/>
                    </mxGeometry>
                </mxCell>
                <mxCell id="18" value="" style="endArrow=classic;html=1;rounded=0;entryX=0;entryY=0.5;entryDx=0;entryDy=0;exitX=1;exitY=0.75;exitDx=0;exitDy=0;" parent="1" source="5" target="7" edge="1">
                    <mxGeometry width="50" height="50" relative="1" as="geometry">
                        <mxPoint x="490" y="385" as="sourcePoint"/>
                        <mxPoint x="510" y="410" as="targetPoint"/>
                    </mxGeometry>
                </mxCell>
                <mxCell id="19" value="Query Flow" style="endArrow=classic;html=1;rounded=0;entryX=0;entryY=0.5;entryDx=0;entryDy=0;exitX=1;exitY=0.5;exitDx=0;exitDy=0;" parent="1" source="8" target="9" edge="1">
                    <mxGeometry width="50" height="50" relative="1" as="geometry">
                        <mxPoint x="490" y="530" as="sourcePoint"/>
                        <mxPoint x="510" y="530" as="targetPoint"/>
                    </mxGeometry>
                </mxCell>
                <mxCell id="20" value="" style="endArrow=classic;html=1;rounded=0;entryX=0.5;entryY=0;entryDx=0;entryDy=0;exitX=0.5;exitY=1;exitDx=0;exitDy=0;" parent="1" source="9" target="10" edge="1">
                    <mxGeometry width="50" height="50" relative="1" as="geometry">
                        <mxPoint x="590" y="580" as="sourcePoint"/>
                        <mxPoint x="400" y="580" as="targetPoint"/>
                        <Array as="points">
                            <mxPoint x="590" y="580"/>
                            <mxPoint x="400" y="580"/>
                        </Array>
                    </mxGeometry>
                </mxCell>
                <mxCell id="21" value="" style="endArrow=classic;html=1;rounded=0;entryX=0.5;entryY=0;entryDx=0;entryDy=0;" parent="1" source="10" target="11" edge="1">
                    <mxGeometry width="50" height="50" relative="1" as="geometry">
                        <mxPoint x="400" y="690" as="sourcePoint"/>
                        <mxPoint x="400" y="690" as="targetPoint"/>
                    </mxGeometry>
                </mxCell>
                <mxCell id="22" value="" style="endArrow=classic;html=1;rounded=0;entryX=0.5;entryY=0;entryDx=0;entryDy=0;" parent="1" source="11" target="12" edge="1">
                    <mxGeometry width="50" height="50" relative="1" as="geometry">
                        <mxPoint x="400" y="790" as="sourcePoint"/>
                        <mxPoint x="400" y="790" as="targetPoint"/>
                    </mxGeometry>
                </mxCell>
            </root>
        </mxGraphModel>
    </diagram>
</mxfile>